<?xml version="1.0" standalone="no"?><!DOCTYPE svg PUBLIC "-//W3C//DTD SVG 1.1//EN" "http://www.w3.org/Graphics/SVG/1.1/DTD/svg11.dtd"><svg t="1622253253989" class="icon" viewBox="0 0 1024 1024" version="1.1" xmlns="http://www.w3.org/2000/svg" p-id="4949" width="24" height="24" xmlns:xlink="http://www.w3.org/1999/xlink"><defs><style type="text/css"></style></defs><path d="M768 448c-47.274 0-88.614 25.78-110.782 64L638 512c-84.928 0-159.98-35.808-223.07-106.428-40.712-45.574-66.986-97.738-75.712-116.436C366.602 265.644 384 230.826 384 192c0-70.58-57.42-128-128-128S128 121.42 128 192c0 47.274 25.78 88.614 64 110.782l0 418.438C153.78 743.386 128 784.726 128 832c0 70.58 57.42 128 128 128s128-57.42 128-128c0-47.274-25.78-88.614-64-110.782L320 491.384C407.106 588.614 516.936 640 638 640l19.218 0c22.168 38.22 63.508 64 110.782 64 70.58 0 128-57.42 128-128S838.58 448 768 448zM256 128c35.346 0 64 28.654 64 64s-28.654 64-64 64-64-28.654-64-64S220.654 128 256 128zM256 896c-35.346 0-64-28.654-64-64s28.654-64 64-64 64 28.654 64 64S291.346 896 256 896zM768 640c-35.346 0-64-28.654-64-64s28.654-64 64-64 64 28.654 64 64S803.346 640 768 640z" p-id="4950" fill="#d7dae0"></path></svg>